<svg xmlns="http://www.w3.org/2000/svg" version="1.1" xmlns:xlink="http://www.w3.org/1999/xlink" xmlns:svgjs="http://svgjs.com/svgjs" width="100%" height="100%"><svg width="100%" height="100%" viewBox="0 0 4500 4500" version="1.1" xmlns="http://www.w3.org/2000/svg" xmlns:xlink="http://www.w3.org/1999/xlink" xml:space="preserve" xmlns:serif="http://www.serif.com/" style="fill-rule:evenodd;clip-rule:evenodd;stroke-linejoin:round;stroke-miterlimit:2;"><g><rect x="3360.68" y="3.748" width="277.602" height="4496.25" style="fill:#286dc0;"></rect><rect x="4050.84" y="0" width="277.602" height="4496.25" style="fill:#286dc0;"></rect><g><path d="M171.554,1241.08l0,277.602l3211.58,-0l0,-277.602l-3211.58,-0Z" style="fill:#286dc0;"></path><path d="M1080.89,2113.07l-0,277.602l2302.24,-0l0,-277.602l-2302.24,-0Z" style="fill:#286dc0;"></path><path d="M2232.01,2985.07l-0,277.602l1151.12,0l0,-277.602l-1151.12,0Z" style="fill:#286dc0;"></path><path d="M2828.72,3857.06l0,277.602l554.408,0l0,-277.602l-554.408,0Z" style="fill:#286dc0;"></path><path d="M1907.88,369.083l-0,277.602l1475.26,-0l0,-277.602l-1475.26,-0Z" style="fill:#286dc0;"></path></g></g></svg><style>@media (prefers-color-scheme: light) { :root { filter: contrast(1) brightness(1); } }
@media (prefers-color-scheme: dark) { :root { filter: contrast(0.3846153846153846) brightness(4.5); } }
</style></svg>